<?xml version="1.0" encoding="UTF-8" standalone="no"?>
<!-- Created with Inkscape (http://www.inkscape.org/) -->

<svg
   xmlns:dc="http://purl.org/dc/elements/1.1/"
   xmlns:cc="http://creativecommons.org/ns#"
   xmlns:rdf="http://www.w3.org/1999/02/22-rdf-syntax-ns#"
   xmlns:svg="http://www.w3.org/2000/svg"
   xmlns="http://www.w3.org/2000/svg"
   xmlns:xlink="http://www.w3.org/1999/xlink"
   xmlns:sodipodi="http://sodipodi.sourceforge.net/DTD/sodipodi-0.dtd"
   xmlns:inkscape="http://www.inkscape.org/namespaces/inkscape"
   width="2000"
   height="5500"
   id="hela"
   version="1.1"
   inkscape:version="0.48.4 r9939"
   sodipodi:docname="C:\wamp\www\hela\img\projects.svg"
   inkscape:export-filename="/Users/annemuigai/Desktop/angormaalegmockup.png"
   inkscape:export-xdpi="90"
   inkscape:export-ydpi="90">
  <defs
     id="defs4">
    <inkscape:path-effect
       effect="spiro"
       id="path-effect44639"
       is_visible="true" />
    <inkscape:path-effect
       effect="spiro"
       id="path-effect42247"
       is_visible="true" />
    <inkscape:path-effect
       effect="spiro"
       id="path-effect42243"
       is_visible="true" />
    <inkscape:path-effect
       effect="spiro"
       id="path-effect42236"
       is_visible="true" />
    <inkscape:path-effect
       is_visible="true"
       id="path-effect41154"
       effect="spiro" />
    <inkscape:path-effect
       effect="spiro"
       id="path-effect39760"
       is_visible="true" />
    <inkscape:path-effect
       effect="spiro"
       id="path-effect39747"
       is_visible="true" />
    <inkscape:path-effect
       effect="spiro"
       id="path-effect39743"
       is_visible="true" />
    <inkscape:path-effect
       effect="spiro"
       id="path-effect39735"
       is_visible="true" />
    <inkscape:path-effect
       effect="spiro"
       id="path-effect37393"
       is_visible="true" />
    <inkscape:path-effect
       is_visible="true"
       id="path-effect37370"
       effect="spiro" />
    <inkscape:path-effect
       is_visible="true"
       id="path-effect36613"
       effect="spiro" />
    <inkscape:path-effect
       effect="spiro"
       id="path-effect35930"
       is_visible="true" />
    <inkscape:path-effect
       effect="spiro"
       id="path-effect34567"
       is_visible="true" />
    <inkscape:path-effect
       effect="spiro"
       id="path-effect20312"
       is_visible="true" />
    <inkscape:path-effect
       is_visible="true"
       id="path-effect20308"
       effect="spiro" />
    <inkscape:path-effect
       effect="spiro"
       id="path-effect20304"
       is_visible="true" />
    <inkscape:path-effect
       is_visible="true"
       id="path-effect20300"
       effect="spiro" />
    <inkscape:path-effect
       effect="spiro"
       id="path-effect20286"
       is_visible="true" />
    <inkscape:path-effect
       effect="spiro"
       id="path-effect20282"
       is_visible="true" />
    <inkscape:path-effect
       effect="spiro"
       id="path-effect20278"
       is_visible="true" />
    <inkscape:path-effect
       effect="spiro"
       id="path-effect20256"
       is_visible="true" />
    <inkscape:path-effect
       effect="spiro"
       id="path-effect20252"
       is_visible="true" />
    <inkscape:path-effect
       effect="spiro"
       id="path-effect20248"
       is_visible="true" />
    <inkscape:path-effect
       effect="spiro"
       id="path-effect20244"
       is_visible="true" />
    <inkscape:path-effect
       effect="spiro"
       id="path-effect20222"
       is_visible="true" />
    <inkscape:path-effect
       effect="spiro"
       id="path-effect20218"
       is_visible="true" />
    <inkscape:path-effect
       effect="spiro"
       id="path-effect20214"
       is_visible="true" />
    <inkscape:path-effect
       effect="spiro"
       id="path-effect13252"
       is_visible="true" />
    <inkscape:path-effect
       effect="spiro"
       id="path-effect11341"
       is_visible="true" />
    <inkscape:path-effect
       effect="spiro"
       id="path-effect11329"
       is_visible="true" />
    <inkscape:path-effect
       effect="spiro"
       id="path-effect11325"
       is_visible="true" />
    <inkscape:path-effect
       is_visible="true"
       id="path-effect9971"
       effect="spiro" />
    <inkscape:path-effect
       effect="spiro"
       id="path-effect9965"
       is_visible="true" />
    <inkscape:path-effect
       is_visible="true"
       id="path-effect9961"
       effect="spiro" />
    <inkscape:path-effect
       effect="spiro"
       id="path-effect9957"
       is_visible="true" />
    <inkscape:path-effect
       is_visible="true"
       id="path-effect9953"
       effect="spiro" />
    <inkscape:path-effect
       effect="spiro"
       id="path-effect9949"
       is_visible="true" />
    <inkscape:path-effect
       is_visible="true"
       id="path-effect9945"
       effect="spiro" />
    <inkscape:path-effect
       effect="spiro"
       id="path-effect9869"
       is_visible="true" />
    <inkscape:path-effect
       effect="spiro"
       id="path-effect9092"
       is_visible="true" />
    <inkscape:path-effect
       effect="spiro"
       id="path-effect9088"
       is_visible="true" />
    <inkscape:path-effect
       effect="spiro"
       id="path-effect9084"
       is_visible="true" />
    <inkscape:path-effect
       is_visible="true"
       id="path-effect8650"
       effect="spiro" />
    <inkscape:path-effect
       effect="spiro"
       id="path-effect8646"
       is_visible="true" />
    <inkscape:path-effect
       effect="spiro"
       id="path-effect8642"
       is_visible="true" />
    <inkscape:path-effect
       effect="spiro"
       id="path-effect8638"
       is_visible="true" />
    <inkscape:path-effect
       effect="spiro"
       id="path-effect8633"
       is_visible="true" />
    <marker
       inkscape:stockid="Arrow1Mend"
       orient="auto"
       refY="0"
       refX="0"
       id="Arrow1Mend"
       style="overflow:visible">
      <path
         id="path5225"
         d="M 0,0 5,-5 -12.5,0 5,5 0,0 z"
         style="fill-rule:evenodd;stroke:#000000;stroke-width:1pt;marker-start:none"
         transform="matrix(-0.4,0,0,-0.4,-4,0)"
         inkscape:connector-curvature="0" />
    </marker>
    <marker
       inkscape:stockid="Tail"
       orient="auto"
       refY="0"
       refX="0"
       id="Tail"
       style="overflow:visible">
      <g
         id="g5252"
         transform="scale(-1.2,-1.2)">
        <path
           id="path5254"
           d="M -3.8048674,-3.9585227 0.54352094,0"
           style="fill:none;stroke:#000000;stroke-width:0.80000001;stroke-linecap:round;marker-start:none;marker-end:none"
           inkscape:connector-curvature="0" />
        <path
           id="path5256"
           d="M -1.2866832,-3.9585227 3.0617053,0"
           style="fill:none;stroke:#000000;stroke-width:0.80000001;stroke-linecap:round;marker-start:none;marker-end:none"
           inkscape:connector-curvature="0" />
        <path
           id="path5258"
           d="M 1.3053582,-3.9585227 5.6537466,0"
           style="fill:none;stroke:#000000;stroke-width:0.80000001;stroke-linecap:round;marker-start:none;marker-end:none"
           inkscape:connector-curvature="0" />
        <path
           id="path5260"
           d="M -3.8048674,4.1775838 0.54352094,0.21974226"
           style="fill:none;stroke:#000000;stroke-width:0.80000001;stroke-linecap:round;marker-start:none;marker-end:none"
           inkscape:connector-curvature="0" />
        <path
           id="path5262"
           d="M -1.2866832,4.1775838 3.0617053,0.21974226"
           style="fill:none;stroke:#000000;stroke-width:0.80000001;stroke-linecap:round;marker-start:none;marker-end:none"
           inkscape:connector-curvature="0" />
        <path
           id="path5264"
           d="M 1.3053582,4.1775838 5.6537466,0.21974226"
           style="fill:none;stroke:#000000;stroke-width:0.80000001;stroke-linecap:round;marker-start:none;marker-end:none"
           inkscape:connector-curvature="0" />
      </g>
    </marker>
    <marker
       inkscape:stockid="EmptyDiamondL"
       orient="auto"
       refY="0"
       refX="0"
       id="EmptyDiamondL"
       style="overflow:visible">
      <path
         id="path5323"
         d="M 0,-7.0710768 -7.0710894,0 0,7.0710589 7.0710462,0 0,-7.0710768 z"
         style="fill:#ffffff;fill-rule:evenodd;stroke:#000000;stroke-width:1pt;marker-start:none"
         transform="scale(0.8,0.8)"
         inkscape:connector-curvature="0" />
    </marker>
    <marker
       inkscape:stockid="Arrow1Lstart"
       orient="auto"
       refY="0"
       refX="0"
       id="Arrow1Lstart"
       style="overflow:visible">
      <path
         id="path5216"
         d="M 0,0 5,-5 -12.5,0 5,5 0,0 z"
         style="fill-rule:evenodd;stroke:#000000;stroke-width:1pt;marker-start:none"
         transform="matrix(0.8,0,0,0.8,10,0)"
         inkscape:connector-curvature="0" />
    </marker>
    <filter
       inkscape:collect="always"
       id="filter36593"
       color-interpolation-filters="sRGB">
      <feGaussianBlur
         inkscape:collect="always"
         stdDeviation="20.032464"
         id="feGaussianBlur36595" />
    </filter>
  </defs>
  <sodipodi:namedview
     id="base"
     pagecolor="#ffffff"
     bordercolor="#666666"
     borderopacity="1.0"
     inkscape:pageopacity="0.0"
     inkscape:pageshadow="2"
     inkscape:zoom="0.22392792"
     inkscape:cx="700.8495"
     inkscape:cy="1584.825"
     inkscape:document-units="px"
     inkscape:current-layer="layer3"
     showgrid="true"
     inkscape:window-width="1366"
     inkscape:window-height="746"
     inkscape:window-x="-8"
     inkscape:window-y="-8"
     inkscape:window-maximized="1"
     showguides="true"
     inkscape:guide-bbox="true"
     showborder="false"
     borderlayer="false"
     inkscape:showpageshadow="false">
    <inkscape:grid
       type="xygrid"
       id="grid3562"
       empspacing="5"
       visible="true"
       enabled="true"
       snapvisiblegridlinesonly="true" />
  </sodipodi:namedview>
  <metadata
     id="metadata7">
    <rdf:RDF>
      <cc:Work
         rdf:about="">
        <dc:format>image/svg+xml</dc:format>
        <dc:type
           rdf:resource="http://purl.org/dc/dcmitype/StillImage" />
        <dc:title />
      </cc:Work>
    </rdf:RDF>
  </metadata>
  <g
     inkscape:label="Layout"
     inkscape:groupmode="layer"
     id="layer1"
     transform="translate(0,4447.6378)"
     style="display:inline" />
  <g
     inkscape:groupmode="layer"
     id="layer4"
     inkscape:label="Layer#1"
     style="display:inline"
     transform="translate(0,3100)"
     sodipodi:insensitive="true" />
  <g
     inkscape:groupmode="layer"
     id="layer2"
     inkscape:label="Layer"
     style="display:inline"
     transform="translate(0,3100)"
     sodipodi:insensitive="true">
    <text
       sodipodi:linespacing="125%"
       id="text34515"
       y="1619.4146"
       x="466.53949"
       style="font-size:40px;font-style:normal;font-variant:normal;font-weight:normal;font-stretch:normal;line-height:125%;letter-spacing:0px;word-spacing:0px;fill:#000000;fill-opacity:1;stroke:none;font-family:TrashHand;-inkscape-font-specification:TrashHand"
       xml:space="preserve"><tspan
         y="1619.4146"
         x="466.53949"
         id="tspan34517"
         sodipodi:role="line" /></text>
    <g
       id="g18939"
       style="fill:#02ccff;fill-opacity:1;stroke:#666666;stroke-opacity:1"
       transform="translate(5.1484297,29.530299)" />
  </g>
  <g
     inkscape:groupmode="layer"
     id="layer3"
     inkscape:label="Top Cont"
     style="display:inline"
     transform="translate(0,3100)">
    <g
       id="g8089"
       style="fill:#999999;stroke:#999999"
       transform="matrix(0.85757404,0,0,0.97730986,124.32724,-5.161682)" />
    <g
       id="g44671"
       transform="matrix(0.85757404,0,0,0.97730986,119.55285,-3088.9967)" />
    <rect
       y="3120.0029"
       x="-83.583801"
       height="1263.8276"
       width="1407.1676"
       id="sectors-fill"
       style="fill:#f9f9f9;fill-opacity:1;stroke:#666666;stroke-width:3;stroke-miterlimit:4;stroke-opacity:1;stroke-dasharray:none;filter:url(#filter36593)"
       transform="matrix(0.85779643,0,0,0.84911587,119.43787,-3166.801)" />
    <rect
       style="fill:#f9f9f9;fill-opacity:1;stroke:none"
       id="sectors-inner"
       width="1206.7504"
       height="1088.4332"
       x="47.89645"
       y="-540.77887" />
    <text
       transform="scale(0.94542676,1.0577234)"
       sodipodi:linespacing="125%"
       id="projectno-label"
       y="-455.70084"
       x="278.08066"
       style="font-size:25.63362312px;font-style:normal;font-variant:normal;font-weight:bold;font-stretch:normal;line-height:125%;letter-spacing:0px;word-spacing:0px;fill:#4d4d4d;fill-opacity:1;stroke:none;font-family:COUTURE;-inkscape-font-specification:COUTURE Bold"
       xml:space="preserve"><tspan
         y="-455.70084"
         x="278.08066"
         id="tspan34571"
         sodipodi:role="line"
         style="font-size:25.63362312px">NUMBER OF projects</tspan></text>
    <text
       transform="scale(0.94542676,1.0577234)"
       sodipodi:linespacing="125%"
       id="amount-label"
       y="-451.43518"
       x="803.86981"
       style="font-size:25.63362312px;font-style:normal;font-variant:normal;font-weight:bold;font-stretch:normal;line-height:125%;letter-spacing:0px;word-spacing:0px;fill:#4d4d4d;fill-opacity:1;stroke:none;font-family:COUTURE;-inkscape-font-specification:COUTURE Bold"
       xml:space="preserve"><tspan
         y="-451.43518"
         x="803.86981"
         id="tspan34575"
         sodipodi:role="line">Amount spent</tspan></text>
    <text
       xml:space="preserve"
       style="font-size:14.7835989px;font-style:normal;font-variant:normal;font-weight:normal;font-stretch:normal;text-align:start;line-height:125%;letter-spacing:0px;word-spacing:0px;writing-mode:lr-tb;text-anchor:start;fill:#666666;fill-opacity:1;stroke:none;font-family:Colaborate-Regular;-inkscape-font-specification:Colaborate-Regular"
       x="670.40704"
       y="-298.59"
       id="education"
       sodipodi:linespacing="125%"
       transform="scale(0.92813564,1.0774287)"><tspan
         sodipodi:role="line"
         id="tspan9224"
         x="670.40704"
         y="-298.59">Education</tspan></text>
    <g
       id="govlogo"
       transform="matrix(0.85757404,0,0,0.97730986,124.35014,33.930687)">
      <text
         transform="scale(0.99081319,1.009272)"
         sodipodi:linespacing="125%"
         id="text9238"
         y="-18.877439"
         x="579.17181"
         style="font-size:16.14835167px;font-style:normal;font-variant:normal;font-weight:normal;font-stretch:normal;text-align:start;line-height:125%;letter-spacing:0px;word-spacing:0px;writing-mode:lr-tb;text-anchor:start;fill:#666666;fill-opacity:1;stroke:none;font-family:Colaborate-Regular;-inkscape-font-specification:Colaborate-Regular"
         xml:space="preserve"><tspan
           y="-18.877439"
           x="579.17181"
           id="tspan9240"
           sodipodi:role="line">Governance</tspan></text>
      <g
         id="g18324"
         transform="matrix(1,0,0,1.0186299,-11.813971,-2977.1053)">
        <use
           height="2400"
           width="1240"
           id="use14032"
           transform="translate(0,406.48242)"
           xlink:href="#path13254"
           inkscape:tiled-clone-of="#path13254"
           y="0"
           x="0" />
        <g
           style="fill:#ffffff"
           transform="matrix(0.4992006,0,0,0.4992006,600.40397,2930.9913)"
           id="g15711">
          <path
             style="fill:#ffffff"
             inkscape:connector-curvature="0"
             d="M 53.426,55.349 45.003,47.411 44.973,47.386 5.85,86.502 0.016,80.663 39.138,41.54 v 0.01 l -7.504,-7.514 -0.062,0.041 c -1.271,1.286 -3.583,1.041 -5.176,-0.562 l 0,0 c -1.587,-1.582 -1.848,-3.9 -0.562,-5.176 L 43.042,11.136 c 1.261,-1.276 3.589,-1.026 5.176,0.566 l 0,0 c 1.598,1.588 1.843,3.905 0.556,5.176 l -0.684,0.684 0.01,0.005 c 0,0 21.792,21.307 21.79,21.307 l 0.472,-0.475 c 1.262,-1.276 3.592,-1.031 5.182,0.562 l 0,0 c 1.593,1.583 1.838,3.911 0.551,5.181 l -17.187,17.21 c -1.271,1.281 -3.584,1.042 -5.177,-0.562 l 0,0 c -1.587,-1.583 -1.853,-3.905 -0.566,-5.187 l 0.255,-0.255 h 0.006 z"
             id="path15701" />
          <path
             style="fill:#ffffff"
             inkscape:connector-curvature="0"
             d="m 46.488,77.742 0.005,-4.44 h 46.799 v 4.44 h 3.369 c 1.802,-0.004 3.262,1.817 3.257,4.068 l 0,0 c 0.015,2.251 -1.455,4.069 -3.262,4.048 H 43.134 c -1.807,0.011 -3.271,-1.797 -3.262,-4.053 l 0,0 c 0,-2.246 1.455,-4.067 3.262,-4.063 h 3.354"
             id="path15703" />
        </g>
      </g>
    </g>
    <g
       id="agriclogo"
       transform="matrix(0.85757404,0,0,0.97730986,124.35014,33.930687)">
      <text
         transform="scale(0.99081319,1.009272)"
         sodipodi:linespacing="125%"
         id="text9216"
         y="-475.23193"
         x="581.67621"
         style="font-size:16.14835167px;font-style:normal;font-variant:normal;font-weight:normal;font-stretch:normal;text-align:start;line-height:125%;letter-spacing:0px;word-spacing:0px;writing-mode:lr-tb;text-anchor:start;fill:#666666;fill-opacity:1;stroke:none;font-family:Colaborate-Regular;-inkscape-font-specification:Colaborate-Regular"
         xml:space="preserve"><tspan
           y="-475.23193"
           x="581.67621"
           id="tspan9218"
           sodipodi:role="line">Agriculture </tspan></text>
      <g
         id="g18344"
         transform="matrix(1,0,0,1.0186299,-11.813971,-3022.1365)">
        <path
           inkscape:tile-y0="2512.3672"
           inkscape:tile-x0="569.86716"
           inkscape:tile-h="94.845908"
           inkscape:tile-w="100.26567"
           inkscape:tile-cy="2559.7901"
           inkscape:tile-cx="620"
           transform="matrix(0.67980186,0,0,0.71864768,188.7873,703.77275)"
           d="m 700,2567.1875 c 0,30.2031 -25.88354,54.6875 -57.8125,54.6875 -31.92896,0 -57.8125,-24.4844 -57.8125,-54.6875 0,-30.2031 25.88354,-54.6875 57.8125,-54.6875 31.92896,0 57.8125,24.4844 57.8125,54.6875 z"
           sodipodi:ry="54.6875"
           sodipodi:rx="57.8125"
           sodipodi:cy="2567.1875"
           sodipodi:cx="642.1875"
           id="path13254"
           style="fill:#808080;fill-opacity:1;fill-rule:nonzero;stroke:#666666;stroke-width:2;stroke-linecap:round;stroke-linejoin:round;stroke-miterlimit:4;stroke-opacity:1;stroke-dasharray:none;stroke-dashoffset:0"
           sodipodi:type="arc" />
        <g
           style="fill:#ffffff"
           transform="matrix(0.46109582,0,0,0.46109582,604.29089,2525.6212)"
           id="g13593">
          <path
             style="fill:#ffffff"
             inkscape:connector-curvature="0"
             d="m 81.502,59.479 c -14.446,17.343 -29.439,7.493 -34.332,3.457 3.772,-4.121 5.505,-6.361 12.054,-11.758 6.771,2.767 18.887,-2.487 18.887,-2.487 -8.151,2.136 -14.382,0.925 -16.595,0.339 0.475,-0.371 8.516,-6.191 10.95,-9.557 6.731,0.208 12.291,-5.573 12.291,-5.573 -0.182,-0.156 -3.587,2.454 -10.025,2.767 6.666,-9.792 6.367,-18.802 6.367,-18.802 0,0 -2.461,8.223 -8.724,17.239 -1.283,-6.399 0.352,-10.755 0.169,-10.898 0,0 -4.362,7.187 -2.351,13.795 -3.424,3.913 -8.821,7.292 -10.813,8.808 -0.156,-0.41 -2.239,-7.239 -0.215,-17.324 0,0 -5.488,12.682 -2.051,19.257 -4.205,3.236 -5.332,4.03 -12.356,11.881 C 28.853,48.716 42.509,27.42 54.419,22.459 66.672,17.35 71.776,18.379 83.006,0 95.304,18.216 93.287,45.338 81.502,59.479 z"
             id="path13581" />
          <path
             style="fill:#ffffff"
             inkscape:connector-curvature="0"
             d="m 13.623,57.629 c 7.236,3.308 12.252,7.8 15.699,12.097 0.042,-0.124 0.095,-0.228 0.134,-0.371 C 36.005,45.781 0,49.062 0,49.062 c 0,0 4.974,7.656 7.747,16.003 3.207,9.674 16.312,17.714 21.022,6.224 -3.401,-4.578 -8.265,-9.584 -15.146,-13.66 z"
             id="path13583" />
          <path
             style="fill:#ffffff"
             inkscape:connector-curvature="0"
             d="m 47.17,62.936 c -0.042,-0.053 -2.487,-2.24 -2.448,-2.292 -6.172,6.797 -8.578,12.604 -9.164,20.006 -0.934,-2.545 -2.802,-6.621 -6.237,-10.924 -0.163,0.566 -0.352,1.074 -0.553,1.562 3.659,4.928 5.075,11.641 5.908,13.841 0,6.146 0.674,9.219 1.214,14.349 0,0 3.308,1.953 4.229,-1.692 -1.868,-3.087 -3.701,-24.33 7.051,-34.85 z"
             id="path13585" />
        </g>
      </g>
    </g>
    <g
       id="edulogo"
       transform="matrix(0.85757404,0,0,0.97730986,124.35014,33.930687)">
      <use
         x="0"
         y="0"
         inkscape:tiled-clone-of="#path13254"
         xlink:href="#path13254"
         transform="matrix(1,0,0,1.0186299,-11.813971,-2907.3649)"
         id="use14028"
         width="1240"
         height="2400" />
      <path
         id="path14285"
         d="m 613.78925,-325.6671 c -1.78556,-1.7399 -12.04545,-7.7841 -26.081,-1.6252 0,0.093 0,1.7999 0,4.4016 v 29.3843 h 21.26561 c 0.72982,0.6371 2.46477,1.0891 4.49619,1.0891 2.02728,0 3.76636,-0.452 4.49877,-1.0891 h 21.39009 v -29.3843 c 0,-2.6017 0,-4.309 0,-4.4016 -13.45758,-6.042 -24.21125,0.3494 -25.56966,1.6252 z m -1.90694,30.0573 c 0,-1.1581 -9.98356,-7.9263 -21.51095,-0.5414 v -28.6493 c 2.28296,-1.3344 5.35359,-2.1514 8.74291,-2.1514 7.05495,0 12.76804,2.3582 12.76804,6.7324 v 24.6097 z m 24.97825,-0.5414 c -11.52739,-7.3849 -21.50474,-0.6167 -21.50474,0.5414 v -24.6092 c 0,-4.3743 5.71359,-6.7324 12.76132,-6.7324 3.38931,0 6.45994,0.8171 8.74342,2.1513 v 28.6489 z"
         inkscape:connector-curvature="0"
         style="fill:#ffffff" />
    </g>
    <g
       id="enerlogo"
       transform="matrix(0.85757404,0,0,0.97730986,124.35014,33.930687)">
      <text
         transform="scale(0.99081319,1.009272)"
         sodipodi:linespacing="125%"
         id="text9226"
         y="-248.09619"
         x="594.86102"
         style="font-size:16.14835167px;font-style:normal;font-variant:normal;font-weight:normal;font-stretch:normal;text-align:start;line-height:125%;letter-spacing:0px;word-spacing:0px;writing-mode:lr-tb;text-anchor:start;fill:#666666;fill-opacity:1;stroke:none;font-family:Colaborate-Regular;-inkscape-font-specification:Colaborate-Regular"
         xml:space="preserve"><tspan
           y="-248.09619"
           x="594.86102"
           id="tspan9228"
           sodipodi:role="line">Energy</tspan></text>
      <g
         id="g18336"
         transform="matrix(1,0,0,1.0186299,-11.813971,-2999.6209)">
        <use
           height="2400"
           width="1240"
           id="use14030"
           transform="translate(0,203.24121)"
           xlink:href="#path13254"
           inkscape:tiled-clone-of="#path13254"
           y="0"
           x="0" />
        <path
           style="fill:#ffffff"
           inkscape:connector-curvature="0"
           d="m 643.1687,2737.6598 c -3.93031,0 -7.49493,1.5995 -10.07664,4.1806 l -18.00849,17.6338 c -1.93628,1.9368 -4.60974,3.136 -7.5578,3.136 -5.89611,0 -10.6932,-4.7971 -10.6932,-10.6932 0,-5.8961 4.79709,-10.6925 10.6932,-10.6925 2.94806,0 5.62152,1.199 7.5578,3.1353 l 1.83107,1.7926 c -0.30475,0.6718 -0.47798,1.4154 -0.47798,2.2006 0,1.4769 0.5986,2.8133 1.56546,3.7815 l 7.56229,-7.5623 c -0.9675,-0.9669 -2.30455,-1.5655 -3.78147,-1.5655 -0.86485,0 -1.67965,0.2099 -2.40272,0.5742 l -1.77781,-1.7405 c -2.58171,-2.5811 -6.14568,-4.1806 -10.07664,-4.1806 -7.86127,0 -14.25717,6.3959 -14.25717,14.2572 0,7.8612 6.3959,14.2578 14.25717,14.2578 3.93032,0 7.49493,-1.5994 10.07728,-4.1811 l 18.00849,-17.6345 c 1.93628,-1.9363 4.60975,-3.1354 7.55716,-3.1354 5.89675,0 10.6932,4.7964 10.6932,10.6932 0,5.8967 -4.79645,10.6932 -10.6932,10.6932 -2.09732,0 -4.04837,-0.6153 -5.70043,-1.6623 0.22584,-0.5922 0.35415,-1.2312 0.35415,-1.9024 0,-1.4768 -0.59859,-2.8133 -1.56546,-3.7814 l -1.36848,1.3692 -3.56462,-3.5647 -1.26005,1.2601 3.5646,3.5646 -2.30455,2.3046 -3.5646,-3.5646 -1.26007,1.26 3.56462,3.5646 -1.36914,1.3685 c 0.96815,0.9676 2.30455,1.5654 3.78147,1.5654 0.9675,0 1.87277,-0.261 2.65485,-0.7096 2.29109,1.5694 5.05821,2.4926 8.03771,2.4926 7.86191,0 14.25781,-6.3966 14.25781,-14.2578 0,-7.8613 -6.3959,-14.2572 -14.25781,-14.2572 z"
           id="path15031" />
      </g>
    </g>
    <g
       id="waterlogo"
       transform="matrix(0.85757404,0,0,0.97730986,124.35014,33.930687)">
      <text
         transform="scale(0.99081319,1.009272)"
         sodipodi:linespacing="125%"
         id="text9230"
         y="-134.04004"
         x="562.76923"
         style="font-size:16.14835167px;font-style:normal;font-variant:normal;font-weight:normal;font-stretch:normal;text-align:start;line-height:125%;letter-spacing:0px;word-spacing:0px;writing-mode:lr-tb;text-anchor:start;fill:#666666;fill-opacity:1;stroke:none;font-family:Colaborate-Regular;-inkscape-font-specification:Colaborate-Regular"
         xml:space="preserve"><tspan
           style="font-size:16.14835167px;font-style:normal;font-variant:normal;font-weight:normal;font-stretch:normal;text-align:start;line-height:125%;writing-mode:lr-tb;text-anchor:start;fill:#666666;font-family:Colaborate-Regular;-inkscape-font-specification:Colaborate-Regular"
           y="-134.04004"
           x="562.76923"
           id="tspan9232"
           sodipodi:role="line">Water &amp; Housing</tspan></text>
      <g
         id="g18330"
         transform="matrix(1,0,0,1.0186299,-11.813974,-2988.3631)">
        <use
           height="2400"
           width="1240"
           transform="translate(3.0312501e-6,304.86181)"
           id="use14024"
           xlink:href="#path13254"
           inkscape:tiled-clone-of="#path13254"
           y="0"
           x="0" />
        <g
           style="fill:#ffffff"
           transform="matrix(0.43344762,0,0,0.43344762,604.70917,2831.8648)"
           id="g15647">
          <path
             style="fill:#ffffff"
             inkscape:connector-curvature="0"
             d="m 80.834,62.324 c 1.868,3.73 10.273,23.334 10.273,26.146 0,15.378 -20.541,15.378 -20.541,0 10e-4,-2.812 8.406,-23.346 10.268,-26.146 z"
             id="path15637" />
          <path
             style="fill:#ffffff"
             inkscape:connector-curvature="0"
             d="m 92.969,51.895 c 0,-2.122 0,-5.654 0,-11.858 0,-7.513 -6.822,-14.007 -15.865,-14.007 0,0 -0.053,0 -21.127,0 L 55.86,19.438 c 0,-1.895 -1.543,-3.441 -3.444,-3.441 h -8.261 v -4.232 c 0.716,-0.423 1.309,-0.954 1.81,-1.604 2.481,0 7.5,0 17.591,0 1.179,1.51 2.917,2.559 4.974,2.559 3.503,0 6.354,-2.842 6.354,-6.354 C 74.883,2.848 72.032,0 68.529,0 66.426,0 64.642,1.11 63.49,2.692 c -2.779,0 -7.981,0 -17.441,0 C 44.877,1.11 43.106,0 40.997,0 38.9,0 37.11,1.11 35.958,2.692 c -5.397,0 -11.797,0 -19.258,0 C 15.547,1.11 13.77,0 11.673,0 8.158,0 5.312,2.848 5.312,6.364 c 0,3.513 2.845,6.354 6.361,6.354 2.044,0 3.789,-1.048 4.941,-2.559 3.184,0 8.984,0 19.421,0 0.508,0.664 1.113,1.204 1.842,1.611 v 4.225 h -8.77 c -1.895,0 -3.438,1.546 -3.438,3.441 v 6.592 c -2.155,0 -8.327,0 -25.671,0 v 20.541 c 0.605,0 4.766,0 28.555,0 2.799,5.615 6.53,8.396 12.135,8.396 5.599,0 10.267,-2.78 13.067,-8.396 0,0 0,0 10.273,0 3.066,0 4.199,1.973 4.524,5.755 -0.898,0.612 -1.517,1.605 -1.517,2.78 0,1.901 1.543,3.444 3.438,3.444 h 21.315 c 1.9,0 3.443,-1.543 3.443,-3.444 0.004,-1.487 -0.939,-2.727 -2.262,-3.209 z"
             id="path15639" />
        </g>
      </g>
    </g>
    <g
       id="healthlogo"
       transform="matrix(0.85757404,0,0,0.97730986,124.35014,33.930687)">
      <text
         transform="scale(0.99081319,1.009272)"
         sodipodi:linespacing="125%"
         id="text9242"
         y="94.314941"
         x="597.03485"
         style="font-size:16.14835167px;font-style:normal;font-variant:normal;font-weight:normal;font-stretch:normal;text-align:start;line-height:125%;letter-spacing:0px;word-spacing:0px;writing-mode:lr-tb;text-anchor:start;fill:#666666;fill-opacity:1;stroke:none;font-family:Colaborate-Regular;-inkscape-font-specification:Colaborate-Regular"
         xml:space="preserve"><tspan
           y="94.314941"
           x="597.03485"
           id="tspan9244"
           sodipodi:role="line">Health</tspan></text>
      <g
         id="g18320"
         transform="matrix(1,0,0,1.0186299,-11.813974,-2965.8474)">
        <use
           x="0"
           y="0"
           inkscape:tiled-clone-of="#path13254"
           xlink:href="#path13254"
           id="use14036"
           transform="translate(3.0312501e-6,508.10302)"
           width="1240"
           height="2400" />
        <path
           style="fill:#ffffff"
           inkscape:connector-curvature="0"
           d="m 635.19198,3034.3683 c -1.62871,-1.3348 -2.76023,-1.0207 -4.39202,1.8886 -1.07789,1.9237 -2.79374,2.1558 -3.84481,2.097 l 0.008,-0.3848 c 1.21867,-0.6059 2.0779,-1.8349 2.0779,-3.2837 0,-2.0443 -1.655,-3.6947 -3.69319,-3.6947 -2.03818,0 -3.6999,1.6504 -3.6999,3.6952 0,1.4488 0.85974,2.6778 2.08152,3.2807 l 0.003,0.3878 c -1.04746,0.059 -2.76694,-0.1727 -3.84482,-2.097 -1.62509,-2.9093 -2.76022,-3.2233 -4.38479,-1.8886 -1.6354,1.3362 -8.08211,9.0404 -15.94245,8.3333 0,0 1.55804,3.5374 5.80513,2.7535 0,0 2.26976,2.3553 5.95314,0.7066 0,0 1.91391,1.7261 4.95933,0.1563 0,0 2.26305,1.7291 4.67721,0.2351 0,0 1.36309,0.9871 2.8778,0.7318 l 0.097,8.8945 c -0.17121,-0.033 -0.30893,-0.073 -0.48995,-0.1058 -0.007,-0.01 -2.63902,-0.5674 -5.42296,-1.3482 -2.67926,-0.7018 -5.6205,-1.8401 -6.05372,-2.4327 0.0371,-0.037 0.0975,-0.065 0.17484,-0.1027 0.23826,-0.1258 0.64467,-0.2552 1.12842,-0.3542 0.98352,-0.2001 2.31669,-0.3022 3.65658,-0.3559 2.66275,-0.096 3.14289,0.02 3.18982,0.029 0.003,-0.084 1.54103,0.1815 1.96446,-1.3853 -0.0165,-0.014 0.0304,-0.078 0.003,-0.1145 -0.0872,-1.0778 -0.91646,-1.1315 -1.59517,-1.2574 -1.1011,-0.1444 -0.52708,-0.087 -2.01086,-0.068 -2.43788,0.1816 -9.94907,-0.4264 -10.89545,3.5272 0,0.1108 -0.007,0.1816 -0.0201,0.279 0.31563,3.443 7.44414,4.9371 12.6082,5.9666 -1.75247,1.2 -2.68956,2.7612 -3.06244,4.7797 -0.17793,2.1523 1.53122,4.2008 5.49982,6.49 -3.01552,2.1358 -4.99646,4.14 -4.83503,6.5613 0.2821,1.9742 2.02478,4.6133 5.44927,6.2755 0.0103,0.01 0.0134,-0.01 0.0201,0 0,0 0.003,0 0.0103,0 0,0 -2.39714,-3.6566 -2.55857,-5.6576 -0.15781,-1.1686 0.50696,-2.8943 3.42139,-4.9733 l 0.0841,7.3132 h 0.0134 c 0.0201,0.6214 0.50027,1.118 1.10471,1.118 0.60393,0 1.08459,-0.4966 1.1047,-1.118 h 0.0103 l 0.097,-7.1218 c 2.68596,1.9913 3.294,3.6462 3.13928,4.7813 -0.1609,2.0011 -2.55496,5.6577 -2.55496,5.6577 0.003,0 0.003,0 0.007,0 0,0 0.008,0.01 0.0238,0 3.4214,-1.6623 5.16769,-4.3013 5.44618,-6.2755 0.16092,-2.4208 -1.81952,-4.4255 -4.83142,-6.5612 3.96498,-2.2893 5.67774,-4.3379 5.49981,-6.4901 -0.37287,-2.018 -1.30944,-3.5792 -3.06554,-4.7797 5.16769,-1.0295 12.29259,-2.5236 12.60822,-5.9666 -0.0134,-0.097 -0.0201,-0.1681 -0.0201,-0.2791 -0.9438,-3.9536 -8.45807,-3.3455 -10.89596,-3.5271 -1.48378,-0.019 -0.90976,-0.075 -2.01085,0.068 -0.6782,0.1259 -1.50752,0.1796 -1.59519,1.2574 -0.0267,0.037 0.0238,0.1006 0.008,0.1145 0.42291,1.5663 1.96083,1.3006 1.96445,1.3853 0.0433,-0.01 0.52399,-0.1244 3.18983,-0.029 1.33627,0.053 2.66945,0.1563 3.65297,0.3559 0.48685,0.099 0.88654,0.2279 1.12842,0.3542 0.0774,0.037 0.1408,0.065 0.17845,0.1027 -0.43322,0.5926 -3.37447,1.7309 -6.05371,2.4327 -2.78705,0.7808 -5.41936,1.3446 -5.42607,1.3482 -0.067,0.014 -0.12069,0.026 -0.18773,0.038 l 0.11449,-8.8289 c 1.524,0.2672 2.89742,-0.7303 2.89742,-0.7303 2.40745,1.4941 4.67721,-0.2351 4.67721,-0.2351 3.0449,1.5699 4.95571,-0.1563 4.95571,-0.1563 3.68339,1.6488 5.95314,-0.7066 5.95314,-0.7066 4.24451,0.7844 5.80565,-2.7529 5.80565,-2.7529 -7.86343,0.707 -14.31015,-6.9971 -15.94193,-8.3339 z m -13.31684,31.5434 c -0.98351,-0.6111 -1.44355,-1.4368 -1.3533,-1.9943 0.0537,-0.7757 -0.21506,-2.6256 3.45492,-3.9722 l 0.0841,7.3466 c -0.70811,-0.4465 -1.44046,-0.9066 -2.18569,-1.3801 z m 7.95782,-1.9943 c 0.0908,0.5575 -0.36979,1.3837 -1.3533,1.9943 -0.64467,0.4132 -1.27593,0.8056 -1.89379,1.195 l 0.0944,-7.0476 c 3.34712,1.34 3.09906,3.1063 3.1527,3.8583 z"
           id="path16975" />
      </g>
    </g>
    <g
       id="culturelogo"
       transform="matrix(0.85757404,0,0,0.97730986,124.35014,33.930687)">
      <text
         transform="scale(0.99081319,1.009272)"
         sodipodi:linespacing="125%"
         id="text9250"
         y="321.76587"
         x="595.20978"
         style="font-size:16.14835167px;font-style:normal;font-variant:normal;font-weight:normal;font-stretch:normal;text-align:start;line-height:125%;letter-spacing:0px;word-spacing:0px;writing-mode:lr-tb;text-anchor:start;fill:#666666;fill-opacity:1;stroke:none;font-family:Colaborate-Regular;-inkscape-font-specification:Colaborate-Regular"
         xml:space="preserve"><tspan
           y="321.76587"
           x="595.20978"
           id="tspan9252"
           sodipodi:role="line">Culture</tspan></text>
      <g
         id="g18302"
         transform="matrix(1,0,0,1.0186299,-11.813971,-2943.3318)">
        <use
           height="2400"
           width="1240"
           id="use14034"
           transform="translate(0,711.34423)"
           xlink:href="#path13254"
           inkscape:tiled-clone-of="#path13254"
           y="0"
           x="0" />
        <g
           style="fill:#ffffff"
           transform="matrix(0.73721514,0,0,0.73721514,588.50929,3224.1944)"
           id="g18293">
          <g
             style="fill:#ffffff"
             id="Layer_1" />
          <g
             style="fill:#ffffff"
             id="Isolation_Mode">
            <g
               style="fill:#ffffff"
               id="g18277">
              <path
                 style="fill:#ffffff"
                 inkscape:connector-curvature="0"
                 d="m 31.524,42.103 c -0.725,-2.99 -5.178,-1.794 -5.178,-1.794 0,0 -4.506,0.977 -3.783,3.966 0.044,0.176 0.154,0.626 0.154,0.626 0,0 1.181,-1.214 4.267,-1.962 3.088,-0.749 4.692,-0.211 4.692,-0.211 0,0 -0.101,-0.418 -0.152,-0.625 z"
                 id="path18279" />
              <path
                 style="fill:#ffffff"
                 inkscape:connector-curvature="0"
                 d="m 43.246,48.387 c 0,0 -1.529,2.339 -5.928,3.394 -4.4,1.056 -6.837,-0.327 -6.837,-0.327 0,0 0.218,0.891 0.326,1.332 1.55,6.356 7.876,4.592 7.876,4.592 0,0 6.438,-1.301 4.887,-7.658 -0.091,-0.376 -0.324,-1.333 -0.324,-1.333 z"
                 id="path18281" />
              <path
                 style="fill:#ffffff"
                 inkscape:connector-curvature="0"
                 d="m 46.992,38.353 c -0.725,-2.989 -5.179,-1.796 -5.179,-1.796 0,0 -4.506,0.978 -3.782,3.968 0.044,0.177 0.152,0.625 0.152,0.625 0,0 1.181,-1.211 4.269,-1.96 3.087,-0.749 4.691,-0.212 4.691,-0.212 0,0 -0.101,-0.417 -0.151,-0.625 z"
                 id="path18283" />
              <path
                 style="fill:#ffffff"
                 inkscape:connector-curvature="0"
                 d="m 99.439,55.861 c 0,0 -6.404,-0.959 -8.644,-1.602 -2.242,-0.64 3.034,-5.07 0,-6.082 -2.612,-0.871 -5.481,-0.457 -7.844,0.254 0.604,-3.11 1.222,-6.266 1.593,-8.164 l 0.576,-2.989 -2.655,1.496 c -0.022,0.012 -0.808,0.435 -2.353,0.877 -3.521,-0.28 -9.148,-0.598 -15.406,-1.618 -4.248,-0.692 -8.105,-1.596 -11.225,-2.375 -0.878,-4.085 -2.326,-10.845 -3.01,-14.037 l -0.643,-2.975 -1.856,2.419 c -0.015,0.018 -0.57,0.716 -1.816,1.729 -3.347,1.125 -8.65,3.044 -14.806,4.563 -5.895,1.456 -11.277,2.225 -14.785,2.78 -1.823,-0.347 -2.764,-0.769 -2.784,-0.778 l -2.785,-1.352 0.812,2.987 c 1.531,5.641 4.469,16.482 4.629,17.142 0.08,0.33 0.171,0.652 0.265,0.976 -1.784,-0.673 -4.438,-1.172 -7.56,-0.131 -3.038,1.013 2.241,5.443 0,6.083 -2.239,0.641 -8.642,1.6 -8.642,1.6 l 5.763,1.922 -4.162,3.842 10.244,-1.92 c 0,0 4.85,-1.152 3.202,-4.482 -2.126,-4.295 1.617,-2.01 3.994,-0.688 5.446,8.547 15.559,13.227 21.516,11.795 l 0.051,-0.014 c 0,0 0,0 0.001,0 1.184,-0.291 2.402,-0.879 3.603,-1.708 3.011,7.002 8.588,12.215 13.302,13.013 l 0.052,0.008 c 0,0 0,0 0.002,0 7.543,1.23 20.892,-7.569 23.094,-20.733 0.034,-0.202 0.339,-1.784 0.762,-3.961 2.232,-1.079 4.318,-1.911 2.471,1.483 -2.019,3.708 3.2,4.483 3.2,4.483 l 10.246,1.921 -4.163,-3.843 5.761,-1.921 z M 59.541,48.782 c 0,0 -0.066,0.426 -0.1,0.636 -0.482,3.038 -5.018,2.205 -5.018,2.205 0,0 -0.214,-0.031 -0.541,-0.106 0.239,-0.863 0.438,-1.744 0.594,-2.64 0.126,0.023 0.24,0.05 0.371,0.071 3.139,0.499 4.694,-0.166 4.694,-0.166 z m -19.108,15.605 0.338,1.365 -0.372,-1.357 C 34.861,65.726 22.09,59.497 19.175,47.475 19.013,46.811 16.452,37.36 15.2,32.742 c 3.09,0.712 8.874,1.32 17.326,-0.729 l 0.234,-0.058 c 8.306,-2.05 13.101,-5.197 15.498,-7.228 1.008,4.705 3.075,14.353 3.211,14.918 2.91,12.001 -5.533,23.383 -11.036,24.742 z m 25.958,3.759 c -0.062,0.38 -0.217,1.354 -0.217,1.354 0,0 -1.715,-2.208 -6.184,-2.905 -4.469,-0.7 -6.787,0.876 -6.787,0.876 0,0 0.144,-0.905 0.217,-1.354 1.035,-6.462 7.482,-5.212 7.482,-5.212 0,0 6.522,0.779 5.489,7.241 z M 75.16,51.912 c -0.482,3.035 -5.018,2.206 -5.018,2.206 0,0 -4.57,-0.612 -4.088,-3.651 0.029,-0.179 0.102,-0.635 0.102,-0.635 0,0 1.273,1.114 4.411,1.61 3.138,0.5 4.694,-0.166 4.694,-0.166 0,0 -0.068,0.424 -0.101,0.636 z"
                 id="path18285" />
            </g>
          </g>
        </g>
      </g>
    </g>
    <g
       id="seclogo"
       transform="matrix(0.85757404,0,0,0.97730986,124.35014,33.930687)">
      <text
         transform="scale(0.99081319,1.009272)"
         sodipodi:linespacing="125%"
         id="text9246"
         y="206.86987"
         x="560.68774"
         style="font-size:16.14835167px;font-style:normal;font-variant:normal;font-weight:normal;font-stretch:normal;text-align:start;line-height:125%;letter-spacing:0px;word-spacing:0px;writing-mode:lr-tb;text-anchor:start;fill:#666666;fill-opacity:1;stroke:none;font-family:Colaborate-Regular;-inkscape-font-specification:Colaborate-Regular"
         xml:space="preserve"><tspan
           y="206.86987"
           x="560.68774"
           id="tspan9248"
           sodipodi:role="line">National Security</tspan></text>
      <g
         id="g18313"
         transform="matrix(1,0,0,1.0186299,-11.813974,-2954.5897)">
        <use
           height="2400"
           width="1240"
           id="use14026"
           transform="translate(3.0312501e-6,609.72363)"
           xlink:href="#path13254"
           inkscape:tiled-clone-of="#path13254"
           y="0"
           x="0" />
        <g
           style="fill:#ffffff"
           transform="matrix(0.5106613,0,0,0.5106613,601.89812,3132.8667)"
           id="g17185">
          <path
             style="fill:#ffffff"
             inkscape:connector-curvature="0"
             d="M 87.015,61.706 C 82.744,52.988 76.129,47.682 59.912,47.682 h -1.693 -1.646 c -5.898,0 -9.226,0.443 -14.238,2.025 -8.686,2.734 -40.86,41.406 -40.86,41.406 -1.966,1.966 -1.966,5.149 0,7.116 0.983,0.983 2.265,1.471 3.547,1.471 1.289,0 2.578,-0.488 3.562,-1.471 L 39.202,69.987 C 39.254,70.716 39.814,100 39.814,100 H 76.643 L 77.437,74.421 79.918,100 H 91.839 C 90.315,84.05 88.271,64.265 87.015,61.706 z m -36.68,38.06 H 41.963 L 69.762,50.039 c 2.768,0.56 5.059,1.399 7.012,2.448 L 50.335,99.766 z"
             id="path17173" />
          <path
             style="fill:#ffffff"
             inkscape:connector-curvature="0"
             d="m 75.621,26.211 c 0,9.616 -7.786,17.396 -17.389,17.396 h -0.014 c -0.013,0 -0.013,0 -0.025,0 -9.59,0 -17.383,-7.78 -17.383,-17.396 0,-1.862 0.371,-3.633 0.905,-5.306 h 16.503 16.498 c 0.548,1.673 0.905,3.444 0.905,5.306 z"
             id="path17175" />
          <polygon
             style="fill:#ffffff"
             points="58.219,18.216 41.715,18.216 40.276,4.623 58.219,0 76.155,4.623 74.717,18.216 "
             id="polygon17177" />
        </g>
      </g>
    </g>
    <text
       xml:space="preserve"
       style="font-size:25.63362312px;font-style:normal;font-variant:normal;font-weight:bold;font-stretch:normal;line-height:125%;letter-spacing:0px;word-spacing:0px;fill:#4d4d4d;fill-opacity:1;stroke:none;font-family:COUTURE;-inkscape-font-specification:COUTURE Bold"
       x="640.66534"
       y="-453.80484"
       id="sector-label"
       sodipodi:linespacing="125%"
       transform="scale(0.94542676,1.0577234)"><tspan
         sodipodi:role="line"
         id="tspan43927"
         x="640.66534"
         y="-453.80484">Sector</tspan></text>
  </g>
</svg>
